<svg width="50" height="50" viewBox="0 0 50 50" fill="none" xmlns="http://www.w3.org/2000/svg">
<rect width="50" height="50" rx="15" fill="#F5F6F7"/>
<g clip-path="url(#clip0_14_14)">
<path d="M31.3998 25.5684C31.3643 25.6089 31.3257 25.643 31.2852 25.6727L28.5722 28.7731C28.3075 29.0755 27.8781 29.0756 27.6134 28.773C27.3486 28.4705 27.3486 27.9799 27.6134 27.6772L29.9498 25.007L27.6013 22.3228C27.3365 22.0203 27.3365 21.5299 27.6013 21.227C27.7338 21.0755 27.9074 21 28.0807 21C28.2539 21 28.4277 21.0755 28.56 21.227L31.2852 24.3417C31.3257 24.3714 31.3645 24.4056 31.3998 24.446C31.5351 24.6007 31.6004 24.8045 31.5972 25.0072C31.6004 25.21 31.5351 25.4136 31.3998 25.5684Z" fill="black"/>
</g>
<rect x="16" y="24" width="10" height="2" rx="1" fill="black"/>
<defs>
<clipPath id="clip0_14_14">
<rect width="7" height="8" fill="white" transform="matrix(-1 0 0 -1 33 29)"/>
</clipPath>
</defs>
</svg>
